<?xml version="1.0" encoding="UTF-8" standalone="no"?>
<!-- Created with Inkscape (http://www.inkscape.org/) -->

<svg
   xmlns:dc="http://purl.org/dc/elements/1.1/"
   xmlns:cc="http://creativecommons.org/ns#"
   xmlns:rdf="http://www.w3.org/1999/02/22-rdf-syntax-ns#"
   xmlns:svg="http://www.w3.org/2000/svg"
   xmlns="http://www.w3.org/2000/svg"
   xmlns:sodipodi="http://sodipodi.sourceforge.net/DTD/sodipodi-0.dtd"
   xmlns:inkscape="http://www.inkscape.org/namespaces/inkscape"
   width="93.292068mm"
   height="4.8807158mm"
   viewBox="0 0 93.292068 4.8807158"
   version="1.1"
   id="svg8"
   inkscape:version="0.92.3 (2405546, 2018-03-11)"
   sodipodi:docname="corradofranco.svg"
   inkscape:export-filename="/tmp/bitmap.png"
   inkscape:export-xdpi="96"
   inkscape:export-ydpi="96">
  <defs
     id="defs2" />
  <sodipodi:namedview
     id="base"
     pagecolor="#ffffff"
     bordercolor="#666666"
     borderopacity="1.0"
     inkscape:pageopacity="0.0"
     inkscape:pageshadow="2"
     inkscape:zoom="7.9195959"
     inkscape:cx="209.13224"
     inkscape:cy="5.8758157"
     inkscape:document-units="mm"
     inkscape:current-layer="layer1"
     showgrid="false"
     inkscape:window-width="1280"
     inkscape:window-height="778"
     inkscape:window-x="-2"
     inkscape:window-y="-1"
     inkscape:window-maximized="1"
     showguides="false" />
  <metadata
     id="metadata5">
    <rdf:RDF>
      <cc:Work
         rdf:about="">
        <dc:format>image/svg+xml</dc:format>
        <dc:type
           rdf:resource="http://purl.org/dc/dcmitype/StillImage" />
        <dc:title></dc:title>
      </cc:Work>
    </rdf:RDF>
  </metadata>
  <g
     inkscape:label="Livello 1"
     inkscape:groupmode="layer"
     id="layer1"
     transform="translate(-58.353968,-146.05964)">
    <g
       aria-label="FRANCO"
       style="font-style:normal;font-variant:normal;font-weight:300;font-stretch:normal;font-size:9.26041698px;line-height:5.29166651px;font-family:'Bank Gothic';-inkscape-font-specification:'Bank Gothic, Light';font-variant-ligatures:normal;font-variant-caps:normal;font-variant-numeric:normal;font-feature-settings:normal;text-align:start;letter-spacing:0px;word-spacing:0px;writing-mode:lr-tb;text-anchor:start;fill:#4d4d4d;fill-opacity:1;stroke:none;stroke-width:0.26458332px;stroke-linecap:butt;stroke-linejoin:miter;stroke-opacity:1"
       id="text1368"
       transform="translate(0,0.05119292)">
      <path
         d="m 111.79021,150.83801 h 0.7964 v -1.92616 h 2.13915 v -0.63897 h -2.13915 v -1.56501 h 3.75047 v -0.64823 h -4.54687 z"
         id="path6645"
         inkscape:connector-curvature="0" />
      <path
         d="m 117.68649,150.83801 h 0.7964 v -1.86134 h 1.40758 l 1.94469,1.86134 h 1.18533 l -2.18545,-1.86134 h 0.70379 q 0.52784,0 0.76861,-0.21299 0.24077,-0.21299 0.24077,-0.71305 v -1.06495 q 0,-0.50006 -0.24077,-0.71305 -0.24077,-0.21299 -0.76861,-0.21299 h -3.85234 z m 3.53748,-4.15792 q 0.26855,0 0.38894,0.10186 0.12965,0.0926 0.12965,0.38894 v 0.69453 q 0,0.30559 -0.12965,0.3982 -0.12039,0.0926 -0.38894,0.0926 h -2.74108 v -1.67613 z"
         id="path6647"
         inkscape:connector-curvature="0" />
      <path
         d="m 123.80503,150.83801 h 0.78713 l 0.61119,-1.17607 h 3.23188 l 0.61119,1.17607 h 0.87974 l -2.65774,-4.77837 h -0.85196 z m 1.73169,-1.78726 1.2872,-2.44475 1.2872,2.44475 z"
         id="path6649"
         inkscape:connector-curvature="0" />
      <path
         d="m 131.4686,150.83801 h 0.73157 v -2.81516 q 0,-0.26856 -0.009,-0.51859 -0.009,-0.25929 -0.0463,-0.52784 0.12038,0.20373 0.25003,0.32411 0.12965,0.11113 0.23151,0.21299 l 3.67639,3.32449 h 0.4445 v -4.77837 h -0.73158 v 2.6207 q 0,0.25929 0.009,0.55562 0.009,0.28707 0.0648,0.62045 -0.29634,-0.37968 -0.54637,-0.60193 l -3.57452,-3.19484 h -0.50006 z"
         id="path6651"
         inkscape:connector-curvature="0" />
      <path
         d="m 143.27462,146.70787 v 1.08347 l 0.79639,-0.14817 v -0.45376 q 0,-0.33338 -0.0556,-0.54637 -0.0463,-0.22225 -0.17595,-0.35189 -0.12964,-0.12965 -0.34263,-0.17595 -0.21299,-0.0556 -0.53711,-0.0556 h -2.67626 q -0.32411,0 -0.5371,0.0556 -0.21299,0.0463 -0.34264,0.17595 -0.12964,0.12964 -0.18521,0.35189 -0.0556,0.21299 -0.0556,0.54637 v 2.51883 q 0,0.33338 0.0556,0.55563 0.0556,0.21299 0.18521,0.34263 0.12965,0.12965 0.34264,0.18521 0.21299,0.0463 0.5371,0.0463 h 2.67626 q 0.32412,0 0.53711,-0.0463 0.21299,-0.0556 0.34263,-0.18521 0.12965,-0.12964 0.17595,-0.34263 0.0556,-0.22225 0.0556,-0.55563 v -0.56488 l -0.79639,-0.16669 v 1.19459 h -3.31523 v -3.46339 z"
         id="path6653"
         inkscape:connector-curvature="0" />
      <path
         d="m 146.1083,147.18941 v 2.51883 q 0,0.33338 0.0556,0.55563 0.0556,0.21299 0.18521,0.34263 0.12964,0.12965 0.34263,0.18521 0.21299,0.0463 0.53711,0.0463 h 3.30596 q 0.32412,0 0.53711,-0.0463 0.21299,-0.0556 0.34263,-0.18521 0.12965,-0.12964 0.17595,-0.34263 0.0556,-0.22225 0.0556,-0.55563 v -2.51883 q 0,-0.33338 -0.0556,-0.54637 -0.0463,-0.22225 -0.17595,-0.35189 -0.12964,-0.12965 -0.34263,-0.17595 -0.21299,-0.0556 -0.53711,-0.0556 h -3.30596 q -0.32412,0 -0.53711,0.0556 -0.21299,0.0463 -0.34263,0.17595 -0.12965,0.12964 -0.18521,0.35189 -0.0556,0.21299 -0.0556,0.54637 z m 0.7964,2.98185 v -3.46339 h 3.9542 v 3.46339 z"
         id="path6655"
         inkscape:connector-curvature="0" />
    </g>
    <g
       aria-label="CORRADO"
       style="font-style:normal;font-variant:normal;font-weight:normal;font-stretch:semi-expanded;font-size:9.26041698px;line-height:5.29166651px;font-family:'BankGothic Md BT';-inkscape-font-specification:'BankGothic Md BT, Semi-Expanded';font-variant-ligatures:normal;font-variant-caps:normal;font-variant-numeric:normal;font-feature-settings:normal;text-align:start;letter-spacing:0px;word-spacing:0px;writing-mode:lr-tb;text-anchor:start;fill:#000000;fill-opacity:1;stroke:none;stroke-width:0.26458332px;stroke-linecap:butt;stroke-linejoin:miter;stroke-opacity:1"
       id="text1368-4"
       transform="translate(0,-0.05064208)">
      <path
         d="m 62.464183,147.01553 h -2.997879 v 3.02501 h 2.997879 v -1.02643 l 1.112335,0.23061 v 0.56521 q 0,0.65565 -0.248693,0.8953 -0.244171,0.23512 -0.935989,0.23512 h -2.853185 q -0.69634,0 -0.940512,-0.23512 -0.244171,-0.23965 -0.244171,-0.8953 v -2.51858 q 0,-0.65112 0.244171,-0.89077 0.244172,-0.23965 0.940512,-0.23965 h 2.853185 q 0.691818,0 0.935989,0.23965 0.248693,0.23965 0.248693,0.89077 v 0.45217 l -1.112335,0.17635 z"
         id="path6630"
         inkscape:connector-curvature="0" />
      <path
         d="m 65.769537,147.29135 q 0,-0.65112 0.244171,-0.89077 0.244171,-0.23965 0.940511,-0.23965 h 3.517873 q 0.69634,0 0.940511,0.23965 0.244171,0.23965 0.244171,0.89077 v 2.51858 q 0,0.65565 -0.244171,0.8953 -0.244171,0.23512 -0.940511,0.23512 h -3.517873 q -0.69634,0 -0.940511,-0.23512 -0.244171,-0.23965 -0.244171,-0.8953 z m 1.112335,2.74919 h 3.667089 v -3.02501 h -3.667089 z"
         id="path6632"
         inkscape:connector-curvature="0" />
      <path
         d="M 77.602794,146.9884 H 75.1023 v 1.32937 h 2.500494 q 0.289388,0 0.393387,-0.0814 0.10852,-0.0859 0.10852,-0.29843 v -0.57425 q 0,-0.208 -0.10852,-0.28939 -0.103999,-0.0859 -0.393387,-0.0859 z m -3.594742,3.95195 v -4.77942 h 4.087606 q 0.569733,0 0.822947,0.22156 0.257736,0.21704 0.257736,0.70539 v 1.12137 q 0,0.48382 -0.257736,0.70539 -0.253214,0.22156 -0.822947,0.22156 h -0.623993 l 2.206584,1.80415 H 78.082093 L 76.155854,149.1362 H 75.1023 v 1.80415 z"
         id="path6634"
         inkscape:connector-curvature="0" />
      <path
         d="m 85.03645,146.9884 h -2.500494 v 1.32937 h 2.500494 q 0.289388,0 0.393386,-0.0814 0.108521,-0.0859 0.108521,-0.29843 v -0.57425 q 0,-0.208 -0.108521,-0.28939 -0.103998,-0.0859 -0.393386,-0.0859 z m -3.594742,3.95195 v -4.77942 h 4.087606 q 0.569732,0 0.822947,0.22156 0.257736,0.21704 0.257736,0.70539 v 1.12137 q 0,0.48382 -0.257736,0.70539 -0.253215,0.22156 -0.822947,0.22156 h -0.623993 l 2.206583,1.80415 h -1.596155 l -1.92624,-1.80415 h -1.053553 v 1.80415 z"
         id="path6636"
         inkscape:connector-curvature="0" />
      <path
         d="m 89.772918,149.0322 h 2.093542 l -1.030945,-1.94432 z m -2.138758,1.90815 2.703969,-4.77942 h 1.07164 l 2.740143,4.77942 h -1.247986 l -0.574254,-1.04451 h -3.029531 l -0.556168,1.04451 z"
         id="path6638"
         inkscape:connector-curvature="0" />
      <path
         d="m 96.806404,150.04054 h 1.437897 q 1.148509,0 1.627808,-0.35722 0.479301,-0.35721 0.479301,-1.18016 0,-0.73251 -0.397911,-1.10781 -0.397909,-0.37982 -1.175639,-0.37982 h -1.971456 z m -1.112335,0.89981 v -4.77942 h 3.074748 q 1.315813,0 2.021193,0.61495 0.70991,0.61495 0.70991,1.74537 0,0.66921 -0.27583,1.20729 -0.27582,0.53356 -0.77773,0.84103 -0.31199,0.19444 -0.777727,0.28487 -0.461212,0.0859 -1.184683,0.0859 z"
         id="path6640"
         inkscape:connector-curvature="0" />
      <path
         d="m 103.44424,147.29135 q 0,-0.65112 0.24417,-0.89077 0.24417,-0.23965 0.94051,-0.23965 h 3.51787 q 0.69634,0 0.94052,0.23965 0.24417,0.23965 0.24417,0.89077 v 2.51858 q 0,0.65565 -0.24417,0.8953 -0.24418,0.23512 -0.94052,0.23512 h -3.51787 q -0.69634,0 -0.94051,-0.23512 -0.24417,-0.23965 -0.24417,-0.8953 z m 1.11233,2.74919 h 3.66709 v -3.02501 h -3.66709 z"
         id="path6642"
         inkscape:connector-curvature="0" />
    </g>
  </g>
</svg>
